<svg width="64" height="64" viewBox="0 0 64 64" fill="none" xmlns="http://www.w3.org/2000/svg">
  <!-- 배경 원 -->
  <circle cx="32" cy="32" r="30" fill="#3b82f6" stroke="#2563eb" stroke-width="2"/>
  
  <!-- 사람 아이콘 (상단) -->
  <circle cx="32" cy="20" r="6" fill="white"/>
  
  <!-- 몸통 (하단) -->
  <path d="M20 40 Q32 50 44 40 L44 32 Q32 42 20 32 Z" fill="white"/>
  
  <!-- 건물/회사 아이콘 (배경) -->
  <rect x="16" y="28" width="8" height="12" fill="white" opacity="0.3"/>
  <rect x="24" y="24" width="8" height="16" fill="white" opacity="0.3"/>
  <rect x="32" y="20" width="8" height="20" fill="white" opacity="0.3"/>
  <rect x="40" y="28" width="8" height="12" fill="white" opacity="0.3"/>
  
  <!-- 창문들 -->
  <rect x="18" y="30" width="2" height="2" fill="#3b82f6"/>
  <rect x="22" y="30" width="2" height="2" fill="#3b82f6"/>
  <rect x="26" y="26" width="2" height="2" fill="#3b82f6"/>
  <rect x="30" y="26" width="2" height="2" fill="#3b82f6"/>
  <rect x="34" y="22" width="2" height="2" fill="#3b82f6"/>
  <rect x="38" y="22" width="2" height="2" fill="#3b82f6"/>
  <rect x="42" y="30" width="2" height="2" fill="#3b82f6"/>
  <rect x="46" y="30" width="2" height="2" fill="#3b82f6"/>
</svg> 